# xmcd
#
# Track frame offsets: 
#        150
#        15047
#        28303
#        40299
#        55207
#        67258
#        80364
#        91609
#        105878
#        120242
#        138087
#        153370
#        168477
#        183011
#        198340
#
# Disc length: 2853 seconds
#
# Revision: 0
# Processed by: cddbd v1.5.2PL0 Copyright (c) Steve Scherf et al.
# Submitted via: ExactAudioCopyFreeDBPlugin 1.0
#
DISCID=ab0b230f
DTITLE=Jeff Taylor  - Tavern in the Town: Saloon Piano Favorites
DYEAR=2014
DGENRE=Folk
TTITLE0=Buffalo Gals - Little Brown Jug (Medley)
TTITLE1=Oh, Dem Golden Slippers - The Yellow Rose Of Texas (Medley)
TTITLE2=She'll Be Coming 'Round The Mountain - There Is A Tavern In Th
TTITLE2=e Town (Medley)
TTITLE3=Home On The Range - Oh My Darling, Clementine (Medley)
TTITLE4=Red Wing - The Girl I Left Behind Me (Medley)
TTITLE5=Billy Boy - Bill Cheatham (Medley)
TTITLE6=Chicken Reel - Turkey In The Straw (Medley)
TTITLE7=Lorena
TTITLE8=The Arkansas Traveler - Salt River (Medley)
TTITLE9=Darling Nellie Gray - Cindy - Little Liza Jane (Medley)
TTITLE10=Garyowen - The Irish Washerwoman (Medley)
TTITLE11=Red River Valley - Down In The Valley (Medley)
TTITLE12=Jenny Lind Polka
TTITLE13=Jimmy Crack Corn - The Little Log Cabin In The Lane - Old Dan
TTITLE13=Tucker (Medley)
TTITLE14=Home! Sweet Home!
EXTD=
EXTT0=
EXTT1=
EXTT2=
EXTT3=
EXTT4=
EXTT5=
EXTT6=
EXTT7=
EXTT8=
EXTT9=
EXTT10=
EXTT11=
EXTT12=
EXTT13=
EXTT14=
PLAYORDER=
